# xmcd
#
# Track frame offsets:
#	150
#	18272
#	49752
#	74010
#	97055
#	121195
#
# Disc length: 2265 seconds
#
# Revision: 1
# Processed by: cddbd v1.5.2PL0 Copyright (c) Steve Scherf et al.
# Submitted via: EasyCDDAExtractor 7.0.5.4
#
DISCID=4e08d706
DTITLE=Da' Choice - Make That Move [CDm '94)
DYEAR=1994
DGENRE=Eurodance
TTITLE0=Make That Move (Radio Edit)
TTITLE1=Make That Move (Mellow Mix)
TTITLE2=Make That Move (Extended Mix)
TTITLE3=Make That Move (Club Mix)
TTITLE4=Make That Move (Space Mix)
TTITLE5=Make That Move (Ambient Mix)
EXTD=
EXTT0=
EXTT1=
EXTT2=
EXTT3=
EXTT4=
EXTT5=
PLAYORDER=
